<?xml version="1.0" encoding="utf-8"?>
<!-- Generator: Adobe Illustrator 18.1.0, SVG Export Plug-In . SVG Version: 6.00 Build 0)  -->
<svg version="1.1" id="Шар_1" xmlns="http://www.w3.org/2000/svg" xmlns:xlink="http://www.w3.org/1999/xlink" x="0px" y="0px"
	 viewBox="0 0 257 211" enable-background="new 0 0 257 211" xml:space="preserve">
<g>
	<path fill="#FFFFFF" d="M251.238,110.932c-0.403-1.673-1.231-2.843-2.488-3.512c-1.255-0.668-2.723-0.803-4.398-0.401
		c-1.555,0.371-2.664,1.018-3.33,1.941c-1.574,2.4-2.865,4.314-3.874,5.735c-1.011,1.426-2.152,2.806-3.433,4.146
		c-1.28,1.341-2.676,2.433-4.179,3.282c-1.505,0.844-3.236,1.501-5.189,1.97c-2.912,0.699-5.744,0.619-8.502-0.237
		c-2.755-0.856-5.201-2.524-7.337-5.01c-2.134-2.478-3.668-5.572-4.597-9.269l31.941-7.666c4.267-1.022,7.432-2.425,9.494-4.205
		c2.058-1.782,2.598-4.724,1.612-8.833c-1.062-4.427-3.243-8.5-6.539-12.223c-3.297-3.72-7.553-6.379-12.762-7.975
		c-5.215-1.597-11.01-1.628-17.391-0.098c-4.904,1.178-9.181,3.037-12.831,5.578c-3.65,2.542-6.497,5.618-8.539,9.228
		c-2.043,3.613-3.287,7.652-3.732,12.126c-0.446,4.472-0.09,9.123,1.068,13.944c2.458,10.25,7.318,17.665,14.574,22.248
		c7.259,4.589,16.13,5.622,26.62,3.107c4.583-1.103,8.5-2.674,11.742-4.716c3.241-2.046,5.813-4.252,7.708-6.628
		c1.899-2.376,3.187-4.688,3.871-6.939C251.427,114.273,251.593,112.412,251.238,110.932z M203.447,86.692
		c1.937-3.438,4.939-5.645,9.008-6.623c4.266-1.025,8.039-0.462,11.317,1.684c3.276,2.144,5.784,5.959,7.521,11.446l-29.607,7.105
		C200.921,94.665,201.51,90.13,203.447,86.692z"/>
	<path fill="#FFFFFF" d="M77.544,50.451c-6.742,0-12.281,2.329-16.61,6.991c-2.679,2.881-4.701,6.621-6.077,11.209
		c-0.849,2.832-1.454,5.985-1.808,9.468h49.088c-0.661-9.256-3.157-16.18-7.487-20.776c-0.221-0.233-0.46-0.436-0.687-0.658
		C89.719,52.547,84.257,50.451,77.544,50.451z"/>
	<path fill="#FFFFFF" d="M157.643,139.257c-2.282-1.753-3.967-3.67-5.057-5.755c-1.091-2.08-2.926-6.196-5.505-12.345
		l-18.849-46.615c0.056,0.893,0.086,1.787,0.086,2.683c0,6.81-1.95,11.223-5.851,13.241c-3.902,2.018-9.389,3.023-16.462,3.023
		H53.049c0.064,6.149,1.305,11.572,3.718,16.266c2.412,4.693,5.619,8.229,9.618,10.61c4.002,2.379,8.415,3.57,13.24,3.57
		c3.239,0,6.198-0.379,8.875-1.14c2.679-0.76,5.273-1.95,7.785-3.57c2.51-1.621,4.825-3.356,6.942-5.208
		c2.115-1.85,4.858-4.364,8.231-7.538c1.388-1.189,3.371-1.785,5.951-1.785c2.776,0,5.022,0.763,6.742,2.284
		c1.719,1.519,2.578,3.667,2.578,6.444c0,2.448-0.958,5.305-2.877,8.58c-1.919,3.271-4.81,6.413-8.676,9.422
		c-3.867,3.008-8.728,5.503-14.58,7.486c-5.849,1.985-12.578,2.977-20.179,2.977c-17.388,0-30.909-4.959-40.559-14.878
		c-9.654-9.916-14.481-23.369-14.481-40.36c0-1.009,0.019-2.007,0.057-2.996c0.262-6.864,1.432-13.288,3.513-19.269
		c2.38-6.841,5.852-12.708,10.414-17.602c4.561-4.891,10.18-8.643,16.858-11.255c6.675-2.611,14.082-3.917,22.213-3.917
		c10.577,0,19.652,2.23,27.223,6.693c5.034,2.967,9.209,6.528,12.562,10.652c-0.116-0.393-0.244-0.784-0.344-1.181
		c-0.432-1.652-0.645-3.075-0.645-4.265c0-1.85,0.561-3.684,1.686-5.503c1.122-1.817,2.677-3.305,4.66-4.463
		c1.983-1.157,4.13-1.735,6.446-1.735c4.496,0,7.587,1.289,9.273,3.866c1.686,2.579,3.551,6.91,5.603,12.992l0.676,1.898
		l21.241,59.589l21.206-57.656l2.394-6.507c1.85-5.158,3.67-8.811,5.456-10.959c1.784-2.149,4.494-3.222,8.13-3.222
		c1.342,0,2.604,0.181,3.789,0.534l0.712-1.993c3.657-11.539-4.378-18.841-15.493-18.841H29.66
		c-11.116,0-20.127,8.436-20.127,18.841v64.883v50.778c0,10.406,9.011,18.842,20.127,18.842h109.559
		c11.116,0,23.884-5.538,28.015-18.842l1.507-4.217c-0.622,0.053-1.257,0.094-1.924,0.094
		C162.98,141.885,159.925,141.007,157.643,139.257z"/>
</g>
<g>
	<path fill="#FFFFFF" d="M233.946,17.157c0.972-0.159,2.423-0.279,4.032-0.279c1.987,0,3.377,0.298,4.331,1.054
		c0.794,0.636,1.231,1.569,1.231,2.802c0,1.708-1.212,2.88-2.364,3.297v0.06c0.934,0.377,1.45,1.272,1.787,2.504
		c0.418,1.509,0.835,3.258,1.094,3.774h-3.099c-0.219-0.377-0.537-1.471-0.934-3.12c-0.357-1.669-0.935-2.126-2.166-2.147h-0.914
		v5.266h-2.999V17.157z M236.945,22.919h1.192c1.51,0,2.404-0.755,2.404-1.929c0-1.23-0.834-1.847-2.226-1.866
		c-0.734,0-1.151,0.06-1.37,0.098V22.919z"/>
	<path fill="#FFFFFF" d="M239.002,11.679c-6.597,0-11.945,5.348-11.945,11.945s5.348,11.945,11.945,11.945
		c6.597,0,11.945-5.348,11.945-11.945S245.599,11.679,239.002,11.679 M239.002,34.109c-5.79,0-10.485-4.693-10.485-10.485
		s4.695-10.485,10.485-10.485c5.79,0,10.485,4.693,10.485,10.485S244.792,34.109,239.002,34.109"/>
</g>
<path fill="#FFFFFF" d="M13.027,180.805h0.709v-3.875c0-1.04,0.027-1.854,0.083-2.445c0.055-0.591,0.209-1.098,0.461-1.524
	c0.252-0.44,0.614-0.799,1.087-1.075c0.473-0.276,1-0.414,1.583-0.414c0.819,0,1.559,0.307,2.221,0.921
	c0.441,0.41,0.721,0.91,0.839,1.5c0.118,0.591,0.177,1.43,0.177,2.517v4.394h2.363c0.914,0,1.611,0.217,2.091,0.65
	c0.48,0.433,0.721,0.989,0.721,1.666c0,0.866-0.343,1.473-1.028,1.819c-0.685,0.347-1.666,0.519-2.942,0.519h-1.205v11.861
	c0,1.009,0.036,1.784,0.106,2.328c0.071,0.543,0.26,0.984,0.567,1.323c0.307,0.339,0.807,0.508,1.5,0.508
	c0.378,0,0.89-0.067,1.536-0.2c0.646-0.134,1.15-0.201,1.512-0.201c0.52,0,0.988,0.209,1.406,0.626
	c0.417,0.418,0.626,0.933,0.626,1.548c0,1.04-0.567,1.835-1.701,2.386c-1.134,0.552-2.764,0.827-4.891,0.827
	c-2.016,0-3.544-0.339-4.583-1.016c-1.04-0.677-1.721-1.614-2.044-2.811c-0.323-1.196-0.484-2.795-0.484-4.796V185.46h-0.851
	c-0.93,0-1.639-0.221-2.126-0.662c-0.488-0.441-0.732-1-0.732-1.677c0-0.677,0.256-1.233,0.768-1.666
	C11.306,181.022,12.05,180.805,13.027,180.805z"/>
<path fill="#FFFFFF" d="M40.463,197.155v5.387c0,1.308-0.307,2.289-0.921,2.942c-0.615,0.654-1.394,0.981-2.339,0.981
	c-0.93,0-1.693-0.331-2.292-0.993c-0.599-0.662-0.898-1.638-0.898-2.93v-17.957c0-2.898,1.048-4.347,3.143-4.347
	c1.071,0,1.843,0.339,2.315,1.016c0.473,0.678,0.733,1.678,0.78,3.001c0.772-1.323,1.563-2.324,2.375-3.001
	c0.811-0.677,1.894-1.016,3.249-1.016c1.354,0,2.67,0.339,3.946,1.016c1.276,0.678,1.914,1.576,1.914,2.694
	c0,0.788-0.272,1.437-0.815,1.949c-0.544,0.512-1.131,0.768-1.76,0.768c-0.236,0-0.808-0.146-1.713-0.437
	c-0.906-0.291-1.705-0.438-2.398-0.438c-0.945,0-1.717,0.249-2.315,0.745c-0.599,0.496-1.063,1.232-1.394,2.209
	c-0.331,0.977-0.559,2.139-0.685,3.485C40.526,193.576,40.463,195.218,40.463,197.155z"/>
<path fill="#FFFFFF" d="M72.329,202.826c-1.559,1.213-3.068,2.123-4.525,2.729c-1.457,0.606-3.091,0.91-4.903,0.91
	c-1.654,0-3.107-0.327-4.359-0.981c-1.252-0.653-2.217-1.539-2.894-2.658c-0.678-1.118-1.016-2.331-1.016-3.638
	c0-1.764,0.559-3.269,1.678-4.513c1.118-1.244,2.654-2.079,4.607-2.504c0.41-0.094,1.425-0.307,3.048-0.638
	c1.622-0.331,3.012-0.634,4.17-0.91c1.158-0.275,2.414-0.61,3.769-1.004c-0.079-1.701-0.422-2.949-1.028-3.745
	c-0.607-0.795-1.863-1.194-3.768-1.194c-1.639,0-2.871,0.229-3.698,0.685c-0.827,0.457-1.536,1.143-2.126,2.055
	c-0.591,0.914-1.008,1.516-1.252,1.808c-0.244,0.292-0.768,0.438-1.571,0.438c-0.725,0-1.351-0.232-1.878-0.697
	c-0.528-0.465-0.792-1.059-0.792-1.784c0-1.134,0.402-2.237,1.205-3.308s2.056-1.953,3.757-2.646c1.701-0.693,3.819-1.04,6.356-1.04
	c2.835,0,5.064,0.335,6.687,1.004c1.622,0.67,2.768,1.729,3.438,3.178c0.669,1.449,1.004,3.371,1.004,5.764
	c0,1.512-0.004,2.797-0.012,3.852c-0.008,1.055-0.02,2.229-0.036,3.52c0,1.213,0.201,2.478,0.603,3.792
	c0.401,1.315,0.602,2.163,0.602,2.541c0,0.661-0.311,1.264-0.933,1.807c-0.622,0.544-1.327,0.816-2.115,0.816
	c-0.662,0-1.315-0.312-1.961-0.933C73.739,204.909,73.054,204.008,72.329,202.826z M71.904,193.493
	c-0.945,0.347-2.32,0.713-4.123,1.098c-1.804,0.386-3.052,0.67-3.745,0.851c-0.693,0.181-1.355,0.536-1.985,1.063
	c-0.63,0.528-0.945,1.264-0.945,2.209c0,0.977,0.37,1.808,1.11,2.492c0.74,0.685,1.709,1.028,2.906,1.028
	c1.276,0,2.453-0.279,3.532-0.839c1.079-0.559,1.87-1.279,2.375-2.162c0.582-0.977,0.874-2.583,0.874-4.82V193.493z"/>
<path fill="#FFFFFF" d="M89.516,184.255l5.221,14.649l5.624-15.287c0.441-1.229,0.874-2.099,1.299-2.611
	c0.425-0.512,1.071-0.768,1.937-0.768c0.819,0,1.516,0.276,2.091,0.827c0.575,0.552,0.862,1.19,0.862,1.914
	c0,0.284-0.051,0.615-0.153,0.993c-0.103,0.378-0.221,0.732-0.355,1.063c-0.134,0.331-0.287,0.709-0.461,1.134l-6.19,15.358
	c-0.174,0.441-0.398,1-0.673,1.677c-0.276,0.678-0.583,1.257-0.921,1.737c-0.339,0.48-0.756,0.855-1.252,1.122
	c-0.496,0.267-1.098,0.402-1.808,0.402c-0.914,0-1.642-0.209-2.185-0.627c-0.544-0.417-0.945-0.874-1.205-1.37
	c-0.26-0.496-0.697-1.477-1.311-2.942l-6.143-15.192c-0.142-0.378-0.288-0.756-0.437-1.134c-0.15-0.378-0.276-0.764-0.378-1.158
	c-0.103-0.393-0.154-0.732-0.154-1.016c0-0.441,0.134-0.878,0.402-1.311c0.268-0.433,0.638-0.788,1.11-1.063
	c0.473-0.276,0.984-0.414,1.536-0.414c1.071,0,1.808,0.307,2.209,0.922C88.583,181.774,89.028,182.806,89.516,184.255z"/>
<path fill="#FFFFFF" d="M128.691,194.935h-12.616c0.015,1.465,0.311,2.756,0.886,3.875c0.574,1.119,1.339,1.961,2.292,2.528
	c0.952,0.567,2.004,0.851,3.154,0.851c0.771,0,1.476-0.09,2.114-0.272c0.638-0.181,1.256-0.465,1.855-0.851
	c0.598-0.386,1.15-0.799,1.654-1.241c0.504-0.441,1.158-1.04,1.96-1.796c0.332-0.284,0.804-0.425,1.418-0.425
	c0.661,0,1.197,0.181,1.606,0.543c0.41,0.363,0.615,0.874,0.615,1.536c0,0.582-0.228,1.264-0.685,2.043
	c-0.458,0.78-1.147,1.528-2.068,2.244c-0.921,0.717-2.079,1.311-3.472,1.784c-1.395,0.473-2.998,0.709-4.808,0.709
	c-4.143,0-7.364-1.182-9.664-3.544c-2.3-2.363-3.45-5.568-3.45-9.616c0-1.906,0.284-3.674,0.851-5.304
	c0.567-1.63,1.394-3.028,2.481-4.193c1.087-1.166,2.426-2.06,4.016-2.682s3.355-0.933,5.293-0.933c2.52,0,4.682,0.531,6.485,1.595
	c1.803,1.063,3.155,2.438,4.052,4.123c0.899,1.686,1.347,3.402,1.347,5.151c0,1.622-0.465,2.674-1.393,3.154
	C131.684,194.695,130.377,194.935,128.691,194.935z M116.075,191.272h11.695c-0.157-2.205-0.752-3.855-1.784-4.949
	c-1.032-1.095-2.39-1.642-4.076-1.642c-1.606,0-2.926,0.555-3.957,1.666C116.921,187.457,116.295,189.099,116.075,191.272z"/>
<path fill="#FFFFFF" d="M139.793,202.542v-27.975c0-1.291,0.287-2.268,0.862-2.93c0.575-0.662,1.35-0.992,2.327-0.992
	s1.764,0.327,2.363,0.98c0.599,0.654,0.897,1.635,0.897,2.942v27.975c0,1.308-0.303,2.289-0.909,2.942
	c-0.606,0.654-1.39,0.981-2.351,0.981c-0.945,0-1.713-0.339-2.304-1.016C140.088,204.771,139.793,203.803,139.793,202.542z"/>
</svg>
