<?xml version="1.0" encoding="utf-8"?>
<!-- Generator: Adobe Illustrator 18.1.0, SVG Export Plug-In . SVG Version: 6.00 Build 0)  -->
<svg version="1.1" id="Слой_1" xmlns="http://www.w3.org/2000/svg" xmlns:xlink="http://www.w3.org/1999/xlink" x="0px" y="0px"
	 viewBox="0 0 53.451 56.27" enable-background="new 0 0 53.451 56.27" xml:space="preserve">
<g>
	<g>
		<path d="M3.555,10.687h-2.59C0.432,10.687,0,11.119,0,11.651v12.86c0,0.533,0.432,0.965,0.965,0.965h1.608v29.83
			c0,0.532,0.432,0.965,0.965,0.965h46.378c0.533,0,0.965-0.432,0.965-0.965V25.476h1.608c0.533,0,0.965-0.432,0.965-0.965v-12.86
			c0-0.533-0.432-0.965-0.965-0.965l0,0h-2.591 M44.548,10.687H31.772 M27.69,12.616h4.501v19.355l-4.969-2.982
			c-0.305-0.183-0.687-0.183-0.992,0l-4.969,2.982V12.616h4.501 M29.843,10.687h-6.234 M21.679,10.687H8.903 M51.522,23.547H37.014
			c-0.533,0-0.965,0.431-0.965,0.965c0,0.532,0.431,0.965,0.965,0.965H48.95v28.865H4.501V25.476h11.936
			c0.532,0,0.965-0.432,0.965-0.965c0-0.533-0.432-0.965-0.965-0.965H1.929V12.616h17.402v21.058c0,0.347,0.187,0.668,0.489,0.839
			c0.303,0.172,0.674,0.166,0.971-0.012l5.934-3.56l5.934,3.56c0.153,0.092,0.324,0.138,0.496,0.138
			c0.164,0,0.328-0.042,0.475-0.126c0.302-0.171,0.489-0.492,0.489-0.839V12.616h17.402V23.547z M51.522,23.547"/>
	</g>
	<g>
		<path d="M41.126,11.249c0.85-1.181,1.315-2.578,1.315-4.055c0-1.896-0.758-3.675-2.14-5.008c-2.864-2.761-7.521-2.761-10.383,0
			L26.947,5.05l-2.966-2.864c-2.863-2.761-7.519-2.761-10.383,0c-1.382,1.333-2.145,3.111-2.145,5.008
			c0,1.477,0.466,2.874,1.321,4.055 M31.399,3.458c2.048-1.971,5.373-1.971,7.417,0c0.989,0.948,1.692,2.377,1.692,3.736
			c0,1.353-0.543,2.627-1.532,3.575l-0.492,0.479H23.323L31.399,3.458z M14.917,10.77c-0.984-0.948-1.526-2.223-1.526-3.575
			c0-1.359,0.543-2.627,1.526-3.575c2.05-1.971,5.535-2.132,7.583-0.161l2.966,3.019l-3.548,3.575
			c-0.22,0.212-0.58,0.445-0.771,0.697c-0.056,0.075-0.113,0.153-0.169,0.233c-0.062,0.088-0.127,0.168-0.189,0.262h-5.215
			L14.917,10.77z"/>
	</g>
</g>
</svg>
