<?xml version="1.0" encoding="utf-8"?>
<!-- Generator: Adobe Illustrator 18.1.0, SVG Export Plug-In . SVG Version: 6.00 Build 0)  -->
<svg version="1.1" id="Слой_1" xmlns="http://www.w3.org/2000/svg" xmlns:xlink="http://www.w3.org/1999/xlink" x="0px" y="0px"
	 viewBox="0 0 57.13 55.896" enable-background="new 0 0 57.13 55.896" xml:space="preserve">
<g>
	<g>
		<path d="M10.386,12.709c0.188,0.188,0.434,0.282,0.68,0.282s0.492-0.094,0.68-0.282l5.132-5.132c0.376-0.376,0.376-0.985,0-1.361
			c-0.376-0.376-0.985-0.376-1.361,0l-4.452,4.452L9.822,9.424c-0.376-0.376-0.985-0.376-1.361,0c-0.376,0.376-0.376,0.985,0,1.361
			L10.386,12.709z M10.386,12.709"/>
		<path d="M10.386,22.463c0.188,0.188,0.434,0.282,0.68,0.282s0.492-0.094,0.68-0.282l5.132-5.132c0.376-0.376,0.376-0.985,0-1.361
			c-0.376-0.376-0.985-0.376-1.361,0l-4.452,4.452l-1.244-1.244c-0.376-0.376-0.985-0.376-1.361,0c-0.376,0.376-0.376,0.985,0,1.361
			L10.386,22.463z M10.386,22.463"/>
		<path d="M10.386,32.216c0.188,0.188,0.434,0.282,0.68,0.282s0.492-0.094,0.68-0.282l5.132-5.132c0.376-0.376,0.376-0.985,0-1.361
			c-0.376-0.376-0.985-0.376-1.361,0l-4.452,4.452l-1.244-1.244c-0.376-0.376-0.985-0.376-1.361,0c-0.376,0.376-0.376,0.985,0,1.361
			L10.386,32.216z M10.386,32.216"/>
		<path d="M10.386,41.97c0.188,0.188,0.434,0.282,0.68,0.282s0.492-0.094,0.68-0.282l5.132-5.132c0.376-0.376,0.376-0.985,0-1.361
			c-0.376-0.376-0.985-0.376-1.361,0l-4.452,4.452l-1.244-1.244c-0.376-0.376-0.985-0.376-1.361,0c-0.376,0.376-0.376,0.985,0,1.361
			L10.386,41.97z M10.386,41.97"/>
		<path d="M21.37,20.529c0,0.531,0.357,0.962,0.798,0.962h16.489c0.44,0,0.798-0.431,0.798-0.962s-0.357-0.962-0.798-0.962H22.167
			C21.727,19.567,21.37,19.998,21.37,20.529L21.37,20.529z M21.37,20.529"/>
		<path d="M21.37,10.746c0,0.531,0.357,0.962,0.798,0.962h16.489c0.44,0,0.798-0.431,0.798-0.962c0-0.531-0.357-0.962-0.798-0.962
			H22.167C21.727,9.783,21.37,10.214,21.37,10.746L21.37,10.746z M21.37,10.746"/>
		<path d="M20.529,50.616H1.925V1.669h42.341v23.844h1.925V0.834C46.19,0.374,45.759,0,45.228,0H0.962C0.431,0,0,0.374,0,0.834
			V51.45c0,0.461,0.431,0.834,0.962,0.834h19.567V50.616z"/>
	</g>
	<path stroke="#000000" stroke-width="0.5" stroke-miterlimit="10" d="M56.877,38.837h-1.767v-6.95c0-1.666-1.586-3.022-3.535-3.022
		H49.18l-2.45-3.765c-0.373-0.575-1.084-0.933-1.854-0.933c-0.359,0-0.715,0.079-1.03,0.228l-9.402,4.469H23.942
		c-1.949,0-3.535,1.355-3.535,3.022v20.749c0,1.666,1.586,3.022,3.535,3.022h27.632c1.949,0,3.535-1.356,3.535-3.022v-6.094h1.767
		V38.837z M51.574,30.073c1.089,0,1.978,0.707,2.098,1.612h-2.657l-1.048-1.612H51.574z M44.534,25.452
		c0.331-0.159,0.778-0.048,0.961,0.235l3.903,5.998H31.421L44.534,25.452z M53.695,52.635c0,1-0.951,1.813-2.121,1.813H23.942
		c-1.169,0-2.121-0.813-2.121-1.813V31.887c0-1,0.952-1.813,2.121-1.813h7.96l-3.391,1.612h-4.126c-0.391,0-0.707,0.27-0.707,0.604
		c0,0.334,0.316,0.604,0.707,0.604h29.311v5.943h-5.17c-2.401,0-4.355,1.67-4.355,3.723v0.26c0,2.052,1.954,3.723,4.355,3.723h5.17
		V52.635z M55.463,45.333h-6.938c-1.622,0-2.942-1.128-2.942-2.514v-0.26c0-1.386,1.319-2.514,2.942-2.514h6.938V45.333z
		 M50.69,42.739c0,0.737-0.698,1.334-1.561,1.334c-0.863,0-1.561-0.597-1.561-1.334c0-0.737,0.699-1.334,1.561-1.334
		C49.992,41.404,50.69,42.002,50.69,42.739L50.69,42.739z M50.69,42.739"/>
</g>
</svg>
