<?xml version="1.0" encoding="utf-8"?>
<!-- Generator: Adobe Illustrator 18.1.0, SVG Export Plug-In . SVG Version: 6.00 Build 0)  -->
<svg version="1.1" id="Слой_1" xmlns="http://www.w3.org/2000/svg" xmlns:xlink="http://www.w3.org/1999/xlink" x="0px" y="0px"
	 viewBox="0 0 175 135" enable-background="new 0 0 175 135" xml:space="preserve">
<g>
	<g>
		<g>
			<g>
				<g>
					<path fill="#FF6600" d="M124.124,70.506c-9.861,0-18.114-7.963-18.114-18.114c0-9.861,7.963-18.114,18.114-18.114
						c9.861,0,18.114,7.963,18.114,18.114S133.985,70.506,124.124,70.506z M124.124,40.078c-6.855,0-12.63,5.748-12.63,12.63
						s5.748,12.63,12.63,12.63s12.63-5.748,12.63-12.63S131.243,40.078,124.124,40.078z"/>
				</g>
				<g>
					<path fill="#FF6600" d="M140.841,131.968h-33.46v-17.561H96.676V90.281c0-9.598,6.038-17.271,13.447-17.271h28.266
						c7.409,0,13.447,7.673,13.447,17.271v24.126h-10.705v17.561H140.841z M112.602,126.483h22.755v-17.561h10.705V89.991
						c0-6.302-3.56-11.786-7.963-11.786h-27.976c-4.377,0-7.963,5.484-7.963,11.786v18.932h10.705v17.561
						C112.865,126.483,112.602,126.483,112.602,126.483z"/>
				</g>
			</g>
			<g>
				<g>
					<path fill="#FF6600" d="M50.612,70.506c-9.861,0-18.114-7.963-18.114-17.824c0-10.151,8.227-18.114,18.114-18.114
						s18.114,7.963,18.114,18.114C68.437,62.569,60.474,70.506,50.612,70.506z M50.612,40.078c-7.119,0-12.63,5.484-12.63,12.63
						s5.748,12.63,12.63,12.63s12.63-5.748,12.63-12.63S57.468,40.078,50.612,40.078z"/>
				</g>
				<g>
					<path fill="#FF6600" d="M67.329,131.968h-33.46v-17.561H23.19V90.281c0-9.598,6.038-17.271,13.447-17.271h28.239
						c7.409,0,13.447,7.673,13.447,17.271v24.126H67.619v17.561H67.329z M39.09,126.483h22.755v-17.561H72.55V89.991
						c0-6.302-3.56-11.786-7.963-11.786H36.348c-4.377,0-7.963,5.484-7.963,11.786v18.932H39.09
						C39.09,108.923,39.09,126.483,39.09,126.483z"/>
				</g>
			</g>
			<g>
				<path fill="#FF6600" d="M71.996,39.261v-6.855h-1.925c-1.371,0-2.742-1.107-2.742-2.742V5.774c0-1.371,1.107-2.742,2.742-2.742
					h39.762c1.371,0,2.742,1.107,2.742,2.742V29.9c0,1.371-1.107,2.742-2.742,2.742h-24.68l-8.78,8.78
					C74.844,42.715,71.996,41.95,71.996,39.261z M72.813,27.185h1.925c1.371,0,2.742,1.107,2.742,2.742v3.006l4.931-4.931
					c0.554-0.554,1.107-0.817,1.925-0.817h23.045V8.517H72.813C72.813,8.517,72.813,27.185,72.813,27.185z"/>
			</g>
		</g>
	</g>
</g>
</svg>
