<?xml version="1.0" encoding="utf-8"?>
<!-- Generator: Adobe Illustrator 18.1.0, SVG Export Plug-In . SVG Version: 6.00 Build 0)  -->
<svg version="1.1" id="Слой_1" xmlns="http://www.w3.org/2000/svg" xmlns:xlink="http://www.w3.org/1999/xlink" x="0px" y="0px"
	 viewBox="0 0 175 135" enable-background="new 0 0 175 135" xml:space="preserve">
<g>
	<path fill="#FF6600" d="M153.019,115.186h-27.398c1.884-2.38,2.64-5.435,2.07-8.425l-5.615-29.477
		c-0.706-3.708-3.37-6.753-6.951-7.947l-14.318-4.773c-0.252-0.084-0.509-0.114-0.759-0.097v-3.804
		c2.732-3.07,4.227-6.974,4.227-11.128V44.85c2.454-0.829,4.227-3.152,4.227-5.882V28.4c0-6.919-5.63-12.549-12.549-12.549H79.046
		c-2.796,0-5.167,1.858-5.941,4.405c-3.769,0.792-6.608,4.143-6.608,8.144v10.568c0,2.73,1.773,5.053,4.227,5.882v4.065
		c0,4.367,1.602,8.4,4.227,11.481v4.07c-0.25-0.017-0.506,0.013-0.759,0.097l-14.318,4.773c-3.581,1.194-6.245,4.239-6.951,7.947
		l-5.615,29.477c-0.57,2.99,0.187,6.046,2.07,8.425H21.981c-1.094,0-1.981,0.887-1.981,1.981s0.887,1.981,1.981,1.981H57.56h0.351
		h4.227h50.724h4.227h0.351h35.578c1.094,0,1.981-0.887,1.981-1.981S154.113,115.186,153.019,115.186L153.019,115.186z
		 M76.932,68.425c1.094,0,1.981-0.887,1.981-1.981v-2.62c2.38,1.492,5.135,2.392,8.071,2.481c0.174,0.005,0.347,0.008,0.521,0.008
		c3.068,0,6.008-0.819,8.58-2.358v2.491c0,1.094,0.887,1.981,1.981,1.981c0.028,0,0.055-0.003,0.082-0.004
		c-0.516,4.887-5.095,8.722-10.65,8.722c-5.555,0-10.134-3.836-10.65-8.722C76.878,68.422,76.905,68.425,76.932,68.425z
		 M70.46,38.968V28.4c0-2.404,1.956-4.359,4.359-4.359c1.094,0,1.981-0.887,1.981-1.981c0-1.238,1.007-2.246,2.246-2.246h16.908
		c4.734,0,8.586,3.852,8.586,8.586v10.568c0,0.381-0.096,0.74-0.264,1.055v-3.168c0-3.423-2.785-6.208-6.208-6.208H76.932
		c-3.423,0-6.208,2.785-6.208,6.208v3.168C70.556,39.707,70.46,39.349,70.46,38.968z M74.687,36.854
		c0-1.238,1.007-2.246,2.246-2.246h21.135c1.238,0,2.246,1.007,2.246,2.246v12.681c0,3.495-1.382,6.761-3.891,9.196
		c-2.508,2.434-5.821,3.716-9.318,3.611c-6.847-0.206-12.417-6.229-12.417-13.428C74.687,48.915,74.687,36.854,74.687,36.854z
		 M62.138,115.186c-0.073,0-0.132-0.059-0.132-0.132V87.578c0-0.073,0.059-0.132,0.132-0.132h50.724
		c0.073,0,0.132,0.059,0.132,0.132v27.476c0,0.073-0.059,0.132-0.132,0.132H62.138z M117.089,115.186h-0.139
		c0.001-0.044,0.007-0.087,0.007-0.132V87.578c0-2.258-1.837-4.095-4.095-4.095H62.138c-2.258,0-4.095,1.837-4.095,4.095v27.476
		c0,0.045,0.005,0.088,0.007,0.132h-0.139H57.56c-1.935,0-3.753-0.855-4.987-2.346c-1.234-1.491-1.734-3.436-1.371-5.337
		l5.615-29.477c0.438-2.3,2.09-4.189,4.312-4.929l11.822-3.941c0.883,6.724,7.069,11.951,14.55,11.951s13.667-5.227,14.55-11.951
		l11.822,3.941c2.221,0.741,3.874,2.629,4.312,4.929l5.615,29.477c0.362,1.901-0.138,3.847-1.371,5.337
		c-1.234,1.491-3.051,2.346-4.987,2.346C117.441,115.186,117.089,115.186,117.089,115.186z"/>
	<path fill="#FF6600" d="M87.5,96.164c-3.423,0-6.208,2.785-6.208,6.208s2.785,6.208,6.208,6.208s6.208-2.785,6.208-6.208
		S90.923,96.164,87.5,96.164z M87.5,104.618c-1.238,0-2.246-1.007-2.246-2.246s1.007-2.246,2.246-2.246
		c1.238,0,2.246,1.007,2.246,2.246S88.738,104.618,87.5,104.618z"/>
</g>
</svg>
