<?xml version="1.0" encoding="utf-8"?>
<!-- Generator: Adobe Illustrator 18.1.0, SVG Export Plug-In . SVG Version: 6.00 Build 0)  -->
<svg version="1.1" id="Capa_1" xmlns="http://www.w3.org/2000/svg" xmlns:xlink="http://www.w3.org/1999/xlink" x="0px" y="0px"
	 viewBox="0 0 175 135" enable-background="new 0 0 175 135" xml:space="preserve">
<g>
	<path fill="#FF6600" d="M137.015,17.965c-32.851,0-47.579-16.954-47.789-17.2c-0.855-1.024-2.602-1.022-3.455,0.002
		c-0.144,0.171-14.713,17.195-47.786,17.195c-1.242,0-2.251,1.008-2.251,2.251v42.954c0,23.481,10.556,45.797,28.237,59.69
		c7.128,5.602,14.827,9.655,22.887,12.046c0.209,0.063,0.425,0.095,0.641,0.095c0.216,0,0.43-0.032,0.641-0.095
		c8.06-2.392,15.759-6.444,22.887-12.046c17.681-13.896,28.237-36.209,28.237-59.69V20.216
		C139.266,18.973,138.257,17.965,137.015,17.965z M134.764,63.17c0,22.111-9.912,43.103-26.517,56.152
		c-6.489,5.1-13.466,8.823-20.747,11.076c-7.281-2.251-14.258-5.976-20.747-11.076C50.148,106.275,40.236,85.28,40.236,63.17V22.441
		C67.789,21.829,82.695,10.07,87.5,5.46c4.805,4.612,19.711,16.369,47.264,16.981V63.17z"/>
	<path fill="#FF6600" d="M86.235,17.974c-6.786,4.612-18.372,10.553-35.03,12.678c-1.125,0.144-1.967,1.101-1.967,2.233v30.287
		c0,19.372,8.627,37.717,23.078,49.074c4.551,3.576,9.383,6.381,14.362,8.334c0.266,0.104,0.542,0.155,0.821,0.155
		c0.279,0,0.558-0.052,0.821-0.155c4.974-1.951,9.808-4.756,14.364-8.334c14.449-11.357,23.076-29.702,23.076-49.074V32.885
		c0-1.132-0.842-2.089-1.967-2.233c-16.657-2.125-28.244-8.066-35.03-12.678C88.002,17.454,86.998,17.454,86.235,17.974z
		 M121.26,34.845V63.17c0,18.003-7.983,35.025-21.357,45.533c-3.957,3.108-8.125,5.579-12.403,7.351
		c-4.279-1.774-8.447-4.243-12.401-7.351C61.725,98.192,53.74,81.171,53.74,63.167V34.845c15.527-2.298,26.727-7.756,33.76-12.311
		C94.533,27.089,105.733,32.547,121.26,34.845z"/>
	<path fill="#FF6600" d="M76.247,56.226c0,3.09,1.294,6.039,3.52,8.15l-5.703,22.815c-0.169,0.673-0.016,1.384,0.41,1.931
		s1.08,0.867,1.774,0.867h22.507c0.693,0,1.348-0.32,1.774-0.867c0.425-0.547,0.578-1.258,0.41-1.931l-5.703-22.813
		c2.226-2.111,3.52-5.06,3.52-8.15c0-6.205-5.048-11.253-11.253-11.253S76.247,50.021,76.247,56.226z M94.252,56.226
		c0,2.165-1.067,4.218-2.852,5.489c-0.754,0.538-1.103,1.481-0.878,2.379l5.348,21.39H79.13l5.348-21.39
		c0.225-0.898-0.124-1.841-0.878-2.379c-1.785-1.272-2.852-3.324-2.852-5.489c0-3.723,3.029-6.752,6.752-6.752
		S94.252,52.504,94.252,56.226z"/>
</g>
</svg>
