<?xml version="1.0" encoding="utf-8"?>
<!-- Generator: Adobe Illustrator 18.1.0, SVG Export Plug-In . SVG Version: 6.00 Build 0)  -->
<svg version="1.1" id="Layer_1" xmlns="http://www.w3.org/2000/svg" xmlns:xlink="http://www.w3.org/1999/xlink" x="0px" y="0px"
	 viewBox="0 0 175 135" enable-background="new 0 0 175 135" xml:space="preserve">
<g>
	<g>
		<g>
			<path fill="#FF6600" d="M50.669,70.766c-2.221,0-4.307,1.182-5.444,3.081l-3.277,5.463l-0.174-0.348V72.24l7.079-2.833
				c2.312-0.923,3.808-3.129,3.808-5.62c0-1.947-0.945-3.782-2.521-4.919c-1.581-1.134-3.623-1.439-5.465-0.819l-0.771,0.259
				l0.88-1.759c0.88-1.762,1.346-3.732,1.346-5.698c0-3.427-2.787-6.214-6.214-6.214c-2.369,0-4.496,1.315-5.559,3.436L28.94,58.906
				l-4.542,22.321l-0.044,28.733l1.709,8.71H20v15.242h32.661v-15.242h-6.532v-14.582l3.989-5.984l5.931-15.651
				c0.642-1.714,0.967-3.51,0.967-5.339C57.016,73.614,54.168,70.766,50.669,70.766z M46.066,62.176
				c0.523-0.174,1.082-0.091,1.533,0.231s0.708,0.825,0.708,1.38c0,0.699-0.418,1.315-1.067,1.576l-5.465,2.186v-3.93L46.066,62.176
				z M48.306,123.024v6.532H24.355v-6.532H48.306z M51.971,80.922l-5.613,14.974l-4.583,6.872v15.902H30.495l-1.785-8.925V81.869
				l4.255-21.276l5.287-10.569c0.316-0.638,0.954-1.032,1.664-1.032c1.023,0,1.86,0.836,1.86,1.86c0,1.293-0.307,2.591-0.886,3.754
				l-3.469,6.937v18.449l4.181,8.361l7.36-12.265c0.357-0.597,1.013-0.967,1.709-0.967c1.1,0,1.992,0.893,1.992,1.992
				C52.661,78.42,52.43,79.702,51.971,80.922z"/>
			<path fill="#FF6600" d="M148.947,118.669l1.657-8.283l0.041-28.733l-4.398-22.201l-5.603-11.379
				c-1.06-2.121-3.19-3.436-5.559-3.436c-3.427,0-6.214,2.787-6.214,6.214c0,1.964,0.466,3.937,1.346,5.7l0.878,1.755l-0.769-0.259
				c-1.84-0.623-3.885-0.316-5.465,0.819c-1.576,1.139-2.521,2.974-2.521,4.921c0,2.493,1.496,4.697,3.806,5.62l7.081,2.833v6.722
				l-0.174,0.348l-3.277-5.461c-1.137-1.901-3.223-3.083-5.444-3.083c-3.499,0-6.347,2.848-6.347,6.347
				c0,1.829,0.324,3.625,0.967,5.339l5.703,15.207l4.218,6.428v14.582h-6.532v15.242H155v-15.242H148.947z M127.758,65.364
				c-0.647-0.261-1.065-0.878-1.065-1.576c0-0.555,0.257-1.056,0.708-1.38s1.006-0.407,1.533-0.231l4.292,1.444v3.93L127.758,65.364
				z M128.645,95.896l-5.613-14.974c-0.462-1.219-0.692-2.502-0.692-3.808c0-1.1,0.893-1.992,1.992-1.992
				c0.697,0,1.352,0.37,1.709,0.967l7.36,12.263l4.181-8.361V61.54l-3.469-6.935c-0.579-1.161-0.886-2.46-0.886-3.754
				c0-1.023,0.836-1.86,1.86-1.86c0.708,0,1.346,0.394,1.664,1.03l5.287,10.569l4.255,21.278v27.878l-1.785,8.923h-11.279v-15.902
				L128.645,95.896z M150.645,129.556h-23.952v-6.532h23.952V129.556z"/>
			<path fill="#FF6600" d="M115.02,40.282h5.141V27.218h-5.141c-0.695-2.953-1.846-5.738-3.438-8.309l3.632-3.634l-9.237-9.237
				l-3.636,3.63c-2.574-1.592-5.356-2.744-8.309-3.438V1.089H80.968V6.23c-2.953,0.695-5.738,1.846-8.309,3.438l-3.634-3.632
				l-9.237,9.237l3.632,3.634c-1.592,2.574-2.744,5.356-3.438,8.309h-5.143V40.28h5.141c0.695,2.953,1.846,5.737,3.438,8.309
				l-3.632,3.634l9.237,9.237l3.336-3.336c-0.026,0.22-0.067,0.435-0.067,0.662c0,1.938,1.023,3.628,2.55,4.594
				c-0.231,0.605-0.372,1.254-0.372,1.938c0,3.003,2.441,5.444,5.444,5.444h15.242c3.003,0,5.444-2.441,5.444-5.444
				c0-0.686-0.142-1.335-0.372-1.938c1.526-0.965,2.55-2.656,2.55-4.594c0-0.2-0.037-0.392-0.059-0.586l3.26,3.26l9.237-9.237
				l-3.632-3.634C113.174,46.02,114.324,43.235,115.02,40.282z M95.156,66.411H79.914c-0.599,0-1.089-0.49-1.089-1.089
				c0-0.599,0.49-1.089,1.089-1.089h15.242c0.599,0,1.089,0.49,1.089,1.089C96.245,65.921,95.755,66.411,95.156,66.411z
				 M97.333,59.879h-2.177H79.914h-2.177c-0.599,0-1.089-0.49-1.089-1.089s0.49-1.089,1.089-1.089h19.597
				c0.599,0,1.089,0.49,1.089,1.089S97.932,59.879,97.333,59.879z M89.712,39.882c2.528-0.901,4.355-3.297,4.355-6.132
				c0-3.601-2.931-6.532-6.532-6.532c-3.601,0-6.532,2.931-6.532,6.532c0,2.835,1.827,5.23,4.355,6.132v13.465h-4.355v-5.781
				l-1.087-0.629c-4.701-2.724-7.623-7.776-7.623-13.186c0-8.403,6.839-15.242,15.242-15.242s15.242,6.839,15.242,15.242
				c0,5.409-2.922,10.463-7.623,13.186l-1.087,0.629v5.781h-4.355V39.882z M87.535,35.927c-1.202,0-2.177-0.975-2.177-2.177
				s0.975-2.177,2.177-2.177s2.177,0.975,2.177,2.177S88.737,35.927,87.535,35.927z M111.09,37.743
				c-0.603,3.593-1.977,6.913-4.08,9.866l-1.067,1.498l3.114,3.118l-3.079,3.079l-3.118-3.118l-1.5,1.069
				c-0.398,0.283-0.834,0.566-1.3,0.847c-0.503-0.294-1.047-0.529-1.637-0.649v-3.429c5.402-3.621,8.71-9.746,8.71-16.278
				c0-10.807-8.79-19.597-19.597-19.597c-10.807,0-19.597,8.79-19.597,19.597c0,6.53,3.308,12.655,8.71,16.276v3.432
				c-0.603,0.122-1.158,0.364-1.672,0.668c-0.475-0.287-0.923-0.575-1.333-0.867l-1.5-1.069l-3.118,3.118l-3.079-3.079l3.114-3.118
				l-1.067-1.498c-2.103-2.953-3.477-6.273-4.08-9.866l-0.309-1.816h-4.409v-4.355h4.409l0.307-1.816
				c0.603-3.593,1.977-6.913,4.08-9.866l1.067-1.498l-3.114-3.118l3.079-3.079l3.118,3.114l1.498-1.067
				c2.953-2.103,6.273-3.477,9.866-4.08l1.818-0.309V5.444h4.355v4.409l1.816,0.307c3.593,0.603,6.913,1.977,9.866,4.08l1.498,1.067
				l3.118-3.114l3.079,3.079l-3.114,3.118l1.067,1.498c2.103,2.953,3.477,6.273,4.08,9.866l0.309,1.818h4.409v4.355h-4.409
				L111.09,37.743z"/>
			<rect x="85.323" y="75.121" fill="#FF6600" width="4.355" height="4.355"/>
			<rect x="85.323" y="83.831" fill="#FF6600" width="4.355" height="4.355"/>
			<rect x="85.323" y="92.54" fill="#FF6600" width="4.355" height="4.355"/>
			<rect x="85.323" y="101.25" fill="#FF6600" width="4.355" height="4.355"/>
		</g>
	</g>
</g>
</svg>
