<?xml version="1.0" encoding="utf-8"?>
<!-- Generator: Adobe Illustrator 18.1.0, SVG Export Plug-In . SVG Version: 6.00 Build 0)  -->
<svg version="1.1" id="Capa_1" xmlns="http://www.w3.org/2000/svg" xmlns:xlink="http://www.w3.org/1999/xlink" x="0px" y="0px"
	 viewBox="0 0 175 135" enable-background="new 0 0 175 135" xml:space="preserve">
<g>
	<path fill="#FF6600" d="M113.639,71.4c-1.329-1.329-3.097-2.062-4.977-2.062c-0.456,0-0.905,0.045-1.343,0.129L76.354,38.503l6-6
		c0.961-0.961,0.961-2.52,0-3.481l-1.519-1.519l22.78-22.78c0.682-0.682,0.903-1.7,0.564-2.604
		c-0.339-0.904-1.174-1.526-2.137-1.592C88.972-0.368,76.16,4.332,66.769,13.435l-1.525-1.525c-0.461-0.461-1.088-0.721-1.74-0.721
		s-1.279,0.259-1.74,0.721L37.317,36.355c-0.961,0.961-0.961,2.52,0,3.481l2.355,2.355l-4.314,4.314l-2.355-2.355
		c-0.961-0.961-2.52-0.961-3.481,0l-8.801,8.801C20.259,53.413,20,54.039,20,54.692c0,0.653,0.259,1.279,0.721,1.74l17.112,17.112
		c0.48,0.481,1.111,0.721,1.74,0.721c0.63,0,1.26-0.24,1.74-0.721l8.801-8.801c0.462-0.461,0.721-1.088,0.721-1.74
		c0-0.653-0.259-1.279-0.721-1.74l-2.356-2.356l4.314-4.314l2.356,2.356c0.461,0.461,1.088,0.721,1.74,0.721
		c0.653,0,1.279-0.259,1.74-0.721l6-6l30.967,30.967c-0.427,2.218,0.216,4.604,1.93,6.318l36.723,36.723
		c1.329,1.329,3.097,2.062,4.977,2.062c1.88,0,3.648-0.732,4.977-2.062l6.878-6.878l0,0c2.744-2.744,2.744-7.21,0-9.954
		L113.639,71.4z M95.93,5.448L77.355,24.023l-7.107-7.107C77.24,10.163,86.342,6.136,95.93,5.448z M39.573,68.323L25.943,54.692
		l5.32-5.32l13.631,13.631L39.573,68.323z M44.278,55.426l-5.439-5.439l4.314-4.314l5.439,5.439L44.278,55.426z M56.169,51.727
		L42.538,38.096l20.964-20.964l13.631,13.631L56.169,51.727z M72.874,41.984l30.114,30.113l-5.483,5.483L67.391,47.467
		L72.874,41.984z M146.881,114.596l-6.878,6.878c-0.4,0.4-0.931,0.62-1.496,0.62c-0.565,0-1.096-0.22-1.496-0.62l-36.722-36.723
		c-0.824-0.824-0.825-2.166-0.002-2.991l6.881-6.881c0.399-0.398,0.93-0.618,1.494-0.618c0.565,0,1.096,0.22,1.496,0.62
		l36.723,36.723C147.706,112.429,147.706,113.771,146.881,114.596z"/>
	<path fill="#FF6600" d="M101.555,55.862c-0.961,0.961-0.961,2.52,0,3.481c0.962,0.961,2.52,0.961,3.481,0l5.258-5.258
		c6.239-6.239,9.27-14.724,8.315-23.277c-0.572-5.125,1.404-10.224,5.288-13.638c1.115-0.98,2.36-1.791,3.699-2.414l-2.023,6.484
		c-0.838,2.685-0.58,5.535,0.727,8.025c1.306,2.491,3.504,4.323,6.188,5.161c5.541,1.729,11.457-1.373,13.186-6.915l2.089-6.698
		c1.463,2.381,2.266,5.117,2.311,7.989c0.068,4.309-1.573,8.361-4.619,11.408c-1.79,1.79-3.91,3.087-6.302,3.857
		c-4.455,1.434-8.514,3.896-11.737,7.119l-12.862,12.862c-0.961,0.961-0.961,2.52,0,3.481c0.481,0.481,1.111,0.721,1.741,0.721
		c0.63,0,1.26-0.24,1.741-0.721l12.862-12.862c2.673-2.673,6.049-4.718,9.764-5.914c3.098-0.997,5.96-2.748,8.274-5.062
		c3.998-3.998,6.15-9.313,6.061-14.967c-0.089-5.654-2.413-10.903-6.543-14.781c-0.618-0.58-1.492-0.802-2.311-0.586
		c-0.82,0.216-1.471,0.838-1.724,1.648l-3.444,11.04c-0.921,2.95-4.071,4.602-7.021,3.682c-1.429-0.446-2.6-1.422-3.295-2.748
		c-0.695-1.326-0.833-2.843-0.387-4.273l3.405-10.914c0.254-0.815,0.068-1.703-0.491-2.347c-0.559-0.645-1.414-0.953-2.254-0.816
		c-3.837,0.625-7.393,2.3-10.286,4.842c-5.09,4.475-7.681,11.16-6.93,17.882c0.788,7.058-1.728,14.074-6.903,19.25L101.555,55.862z"
		/>
	<path fill="#FF6600" d="M89.509,89.094c-6.239,6.239-9.269,14.723-8.314,23.277c0.572,5.125-1.405,10.223-5.288,13.638
		c-1.115,0.98-2.361,1.791-3.699,2.414l2.023-6.484c0.838-2.685,0.58-5.535-0.727-8.025s-3.504-4.323-6.189-5.161
		c-2.685-0.838-5.535-0.58-8.025,0.727c-2.491,1.306-4.323,3.504-5.161,6.188l-2.09,6.698c-1.463-2.381-2.266-5.117-2.311-7.99
		c-0.068-4.309,1.573-8.361,4.62-11.408c1.79-1.79,3.91-3.087,6.302-3.857c4.455-1.434,8.514-3.896,11.737-7.119l13.068-13.069
		c0.961-0.961,0.961-2.52,0-3.481c-0.961-0.961-2.52-0.961-3.481,0L68.905,88.513c-2.673,2.673-6.05,4.718-9.764,5.914
		c-3.098,0.997-5.96,2.748-8.274,5.062c-3.998,3.998-6.15,9.313-6.061,14.966c0.089,5.654,2.413,10.903,6.544,14.781
		c0.618,0.58,1.492,0.802,2.311,0.586c0.82-0.216,1.471-0.838,1.723-1.648l3.444-11.04c0.446-1.429,1.422-2.599,2.748-3.295
		c1.326-0.695,2.843-0.833,4.273-0.387c1.429,0.446,2.6,1.422,3.295,2.748c0.695,1.326,0.833,2.843,0.387,4.273l-3.405,10.914
		c-0.254,0.815-0.068,1.703,0.491,2.347c0.472,0.543,1.152,0.848,1.859,0.848c0.132,0,0.264-0.011,0.396-0.032
		c3.837-0.625,7.393-2.3,10.285-4.842c5.09-4.476,7.681-11.16,6.93-17.881c-0.788-7.058,1.728-14.075,6.903-19.25
		c0.961-0.961,0.961-2.52,0-3.481C92.029,88.133,90.471,88.133,89.509,89.094z"/>
</g>
</svg>
