<?xml version="1.0" encoding="utf-8"?>
<!-- Generator: Adobe Illustrator 18.1.0, SVG Export Plug-In . SVG Version: 6.00 Build 0)  -->
<svg version="1.1" id="Capa_1" xmlns="http://www.w3.org/2000/svg" xmlns:xlink="http://www.w3.org/1999/xlink" x="0px" y="0px"
	 viewBox="0 0 175 135" enable-background="new 0 0 175 135" xml:space="preserve">
<g>
	<path fill="#FF6600" d="M148.148,26.825h-2.514c-0.004-4.444-0.008-7.146-0.008-7.146c-0.001-1.207-0.98-2.184-2.187-2.184
		c-32.319,0-51.59,7.303-55.919,9.137c-4.333-1.833-23.632-9.137-56.004-9.137c-1.207,0-2.185,0.978-2.187,2.184
		c0,0-0.003,2.702-0.008,7.146h-2.471c-3.778,0-6.852,3.074-6.852,6.852v76.976c0,3.778,3.074,6.852,6.852,6.852h121.296
		c3.778,0,6.852-3.074,6.852-6.852V33.677C155,29.899,151.926,26.825,148.148,26.825z M141.276,103.812
		c-27.254,0.277-44.85,5.73-51.589,8.265v-81.6c4.666-1.879,22.653-8.287,51.568-8.597
		C141.284,48.406,141.319,93.617,141.276,103.812z M85.313,30.461v81.602c-6.778-2.541-24.387-7.975-51.632-8.25
		c-0.039-9.308-0.014-47.802,0.013-74.617c0.005-0.06,0.009-0.121,0.009-0.183c0-0.059-0.004-0.118-0.009-0.176
		c0.002-2.426,0.005-4.756,0.007-6.956C62.58,22.189,80.575,28.56,85.313,30.461z M24.374,110.653V33.677
		c0-1.367,1.112-2.478,2.478-2.478h2.466c-0.008,8.25-0.018,19.921-0.024,31.598c-0.006,10.783-0.009,21.569-0.005,29.666
		c0.002,4.05,0.006,7.427,0.013,9.795c0.003,1.188,0.007,2.122,0.012,2.761c0.01,1.363,0.013,1.872,0.656,2.515
		c0.41,0.411,0.967,0.641,1.547,0.641c18.688,0,33.009,2.552,42.354,4.957h-47.02C25.485,113.132,24.374,112.02,24.374,110.653z
		 M150.626,110.653c0,1.367-1.112,2.478-2.478,2.478h-46.997c9.331-2.405,23.63-4.957,42.288-4.957c0.581,0,1.137-0.231,1.547-0.641
		c0.642-0.643,0.646-1.152,0.656-2.515c0.005-0.639,0.008-1.573,0.012-2.761c0.007-2.368,0.011-5.745,0.013-9.795
		c0.005-8.097,0.001-18.883-0.005-29.666c-0.007-11.677-0.017-23.348-0.025-31.598h2.51c1.367,0,2.478,1.112,2.478,2.478
		L150.626,110.653L150.626,110.653z"/>
	<path fill="#FF6600" d="M56.881,37.307c7.426,1.009,14.381,2.453,20.672,4.292c0.205,0.06,0.411,0.088,0.614,0.088
		c0.946,0,1.819-0.62,2.098-1.574c0.339-1.16-0.326-2.374-1.486-2.713c-6.498-1.899-13.668-3.389-21.31-4.427
		c-1.198-0.164-2.299,0.676-2.461,1.873C54.846,36.043,55.685,37.145,56.881,37.307z"/>
	<path fill="#FF6600" d="M40.748,35.862c2.315,0.106,4.643,0.255,6.918,0.443c0.061,0.005,0.122,0.007,0.183,0.007
		c1.126,0,2.083-0.865,2.177-2.007c0.099-1.204-0.796-2.26-1.999-2.359c-2.328-0.192-4.709-0.345-7.078-0.454
		c-1.202-0.047-2.229,0.878-2.285,2.084C38.608,34.783,39.542,35.806,40.748,35.862z"/>
	<path fill="#FF6600" d="M78.78,56.062c-4.411-1.29-9.195-2.403-14.218-3.309c-1.189-0.214-2.326,0.576-2.54,1.764
		c-0.214,1.188,0.575,2.326,1.764,2.54c4.872,0.879,9.504,1.956,13.767,3.202c0.205,0.06,0.411,0.089,0.615,0.089
		c0.946,0,1.819-0.62,2.098-1.574C80.604,57.615,79.939,56.401,78.78,56.062z"/>
	<path fill="#FF6600" d="M40.748,54.523c4.696,0.215,9.349,0.602,13.831,1.149c0.09,0.011,0.179,0.017,0.267,0.017
		c1.09,0,2.033-0.813,2.168-1.922c0.146-1.199-0.707-2.289-1.906-2.436c-4.59-0.56-9.354-0.956-14.16-1.177
		c-1.202-0.048-2.229,0.878-2.285,2.084C38.608,53.444,39.541,54.467,40.748,54.523z"/>
	<path fill="#FF6600" d="M77.553,50.929c0.205,0.06,0.411,0.088,0.614,0.088c0.946,0,1.819-0.619,2.098-1.574
		c0.339-1.159-0.326-2.374-1.486-2.713c-1.526-0.446-3.122-0.878-4.744-1.283c-1.17-0.292-2.359,0.42-2.652,1.591
		c-0.293,1.172,0.42,2.359,1.591,2.652C74.542,50.083,76.082,50.499,77.553,50.929z"/>
	<path fill="#FF6600" d="M40.748,45.192c7.995,0.367,15.746,1.22,23.038,2.534c0.131,0.024,0.262,0.035,0.391,0.035
		c1.038,0,1.959-0.742,2.15-1.799c0.214-1.188-0.575-2.326-1.764-2.54c-7.481-1.349-15.426-2.224-23.613-2.599
		c-1.202-0.05-2.229,0.878-2.285,2.084C38.608,44.114,39.542,45.137,40.748,45.192z"/>
	<path fill="#FF6600" d="M78.78,65.392c-7.184-2.1-15.149-3.692-23.673-4.732c-1.198-0.147-2.289,0.707-2.436,1.906
		c-0.146,1.199,0.707,2.289,1.906,2.436c8.289,1.011,16.02,2.555,22.976,4.589c0.205,0.06,0.411,0.088,0.615,0.088
		c0.946,0,1.819-0.62,2.098-1.574C80.604,66.946,79.939,65.731,78.78,65.392z"/>
	<path fill="#FF6600" d="M40.748,63.853c1.545,0.071,3.096,0.161,4.61,0.267c0.052,0.004,0.104,0.006,0.155,0.006
		c1.138,0,2.098-0.881,2.179-2.034c0.085-1.205-0.824-2.25-2.028-2.334c-1.549-0.108-3.136-0.201-4.715-0.273
		c-1.21-0.051-2.229,0.878-2.285,2.084C38.609,62.774,39.541,63.798,40.748,63.853z"/>
	<path fill="#FF6600" d="M78.78,84.053c-4.411-1.29-9.195-2.403-14.218-3.309c-1.189-0.214-2.326,0.576-2.54,1.764
		c-0.214,1.188,0.575,2.326,1.764,2.54c4.872,0.879,9.504,1.956,13.767,3.202c0.205,0.06,0.411,0.089,0.615,0.089
		c0.946,0,1.819-0.62,2.098-1.574C80.604,85.607,79.939,84.392,78.78,84.053z"/>
	<path fill="#FF6600" d="M40.748,82.514c4.696,0.215,9.349,0.602,13.831,1.149c0.09,0.011,0.179,0.017,0.267,0.017
		c1.09,0,2.033-0.813,2.168-1.922c0.146-1.199-0.707-2.289-1.906-2.436c-4.59-0.56-9.354-0.956-14.16-1.177
		c-1.202-0.045-2.229,0.878-2.285,2.084C38.608,81.436,39.541,82.458,40.748,82.514z"/>
	<path fill="#FF6600" d="M78.78,93.384c-7.184-2.1-15.149-3.692-23.671-4.732c-1.199-0.148-2.289,0.707-2.436,1.906
		c-0.146,1.199,0.707,2.289,1.906,2.436c8.287,1.011,16.017,2.555,22.974,4.589c0.205,0.06,0.411,0.088,0.614,0.088
		c0.946,0,1.819-0.62,2.098-1.574C80.604,94.937,79.939,93.722,78.78,93.384z"/>
	<path fill="#FF6600" d="M40.748,91.844c1.538,0.071,3.09,0.161,4.614,0.267c0.052,0.004,0.104,0.006,0.155,0.006
		c1.138,0,2.098-0.881,2.179-2.034c0.085-1.205-0.824-2.25-2.029-2.334c-1.558-0.109-3.146-0.201-4.718-0.273
		c-1.202-0.043-2.229,0.878-2.285,2.084C38.608,90.766,39.541,91.789,40.748,91.844z"/>
	<path fill="#FF6600" d="M77.553,78.921c0.205,0.06,0.411,0.088,0.614,0.088c0.946,0,1.819-0.619,2.098-1.574
		c0.339-1.159-0.326-2.374-1.486-2.713c-1.526-0.446-3.122-0.878-4.744-1.283c-1.17-0.292-2.359,0.42-2.652,1.591
		c-0.293,1.172,0.42,2.359,1.591,2.652C74.542,78.074,76.082,78.491,77.553,78.921z"/>
	<path fill="#FF6600" d="M40.748,73.183c7.995,0.367,15.746,1.22,23.038,2.534c0.131,0.024,0.262,0.035,0.391,0.035
		c1.038,0,1.959-0.742,2.15-1.799c0.214-1.188-0.575-2.326-1.764-2.54c-7.481-1.349-15.426-2.224-23.613-2.599
		c-1.202-0.048-2.229,0.878-2.285,2.084C38.608,72.105,39.542,73.128,40.748,73.183z"/>
	<path fill="#FF6600" d="M96.83,41.687c0.203,0,0.41-0.029,0.614-0.088c6.29-1.839,13.245-3.283,20.672-4.292
		c1.197-0.163,2.035-1.265,1.873-2.461c-0.163-1.197-1.264-2.035-2.461-1.873c-7.642,1.039-14.811,2.528-21.31,4.427
		c-1.159,0.339-1.824,1.553-1.486,2.713C95.01,41.068,95.883,41.687,96.83,41.687z"/>
	<path fill="#FF6600" d="M127.148,36.312c0.06,0,0.121-0.002,0.183-0.007c2.275-0.188,4.603-0.337,6.918-0.443
		c1.207-0.055,2.14-1.078,2.084-2.285c-0.055-1.207-1.077-2.135-2.285-2.084c-2.369,0.109-4.75,0.261-7.078,0.454
		c-1.204,0.099-2.099,1.156-1.999,2.359C125.066,35.448,126.022,36.312,127.148,36.312z"/>
	<path fill="#FF6600" d="M96.83,60.348c0.203,0,0.41-0.029,0.615-0.088c4.264-1.246,8.896-2.324,13.767-3.203
		c1.188-0.214,1.978-1.352,1.764-2.54c-0.214-1.189-1.352-1.978-2.54-1.764c-5.023,0.906-9.807,2.019-14.218,3.309
		c-1.159,0.339-1.824,1.554-1.485,2.713C95.01,59.729,95.883,60.348,96.83,60.348z"/>
	<path fill="#FF6600" d="M134.048,50.154c-4.806,0.221-9.57,0.616-14.16,1.177c-1.199,0.146-2.052,1.237-1.906,2.436
		c0.135,1.109,1.078,1.922,2.168,1.922c0.088,0,0.178-0.006,0.267-0.017c4.481-0.546,9.134-0.933,13.831-1.149
		c1.207-0.055,2.14-1.078,2.084-2.285C136.278,51.031,135.251,50.101,134.048,50.154z"/>
	<path fill="#FF6600" d="M96.83,51.018c0.203,0,0.41-0.029,0.614-0.088c1.47-0.43,3.01-0.846,4.578-1.238
		c1.172-0.293,1.884-1.48,1.591-2.652c-0.293-1.172-1.481-1.885-2.652-1.591c-1.623,0.406-3.219,0.837-4.744,1.283
		c-1.159,0.339-1.824,1.554-1.486,2.713C95.01,50.398,95.883,51.018,96.83,51.018z"/>
	<path fill="#FF6600" d="M134.048,40.823c-8.188,0.376-16.133,1.25-23.614,2.599c-1.189,0.214-1.978,1.352-1.764,2.54
		c0.191,1.058,1.112,1.799,2.15,1.799c0.129,0,0.26-0.011,0.391-0.035c7.291-1.315,15.042-2.168,23.038-2.534
		c1.207-0.055,2.14-1.078,2.084-2.285C136.278,41.701,135.256,40.769,134.048,40.823z"/>
	<path fill="#FF6600" d="M96.83,69.679c0.203,0,0.41-0.029,0.615-0.088c6.956-2.034,14.687-3.578,22.976-4.589
		c1.199-0.146,2.052-1.237,1.906-2.436c-0.146-1.199-1.237-2.054-2.436-1.906c-8.525,1.04-16.49,2.632-23.673,4.732
		c-1.159,0.339-1.824,1.554-1.485,2.713C95.01,69.059,95.883,69.679,96.83,69.679z"/>
	<path fill="#FF6600" d="M134.048,59.484c-1.579,0.073-3.166,0.164-4.716,0.273c-1.205,0.084-2.113,1.13-2.029,2.334
		c0.081,1.153,1.041,2.034,2.179,2.034c0.051,0,0.103-0.002,0.155-0.006c1.515-0.106,3.066-0.196,4.611-0.267
		c1.207-0.055,2.14-1.078,2.084-2.285C136.278,60.362,135.251,59.43,134.048,59.484z"/>
	<path fill="#FF6600" d="M94.731,86.766c0.279,0.954,1.151,1.574,2.098,1.574c0.203,0,0.41-0.029,0.615-0.088
		c4.264-1.246,8.896-2.324,13.767-3.203c1.188-0.214,1.978-1.352,1.764-2.54c-0.214-1.189-1.352-1.977-2.54-1.764
		c-5.023,0.906-9.807,2.019-14.218,3.309C95.058,84.392,94.393,85.607,94.731,86.766z"/>
	<path fill="#FF6600" d="M134.048,78.145c-4.806,0.221-9.57,0.616-14.16,1.177c-1.199,0.146-2.052,1.237-1.906,2.436
		c0.135,1.109,1.078,1.922,2.168,1.922c0.088,0,0.178-0.006,0.267-0.017c4.481-0.546,9.134-0.933,13.831-1.149
		c1.207-0.055,2.14-1.078,2.084-2.285C136.278,79.023,135.251,78.096,134.048,78.145z"/>
	<path fill="#FF6600" d="M119.888,88.652c-8.523,1.04-16.487,2.632-23.671,4.732c-1.159,0.339-1.824,1.553-1.486,2.713
		c0.279,0.954,1.151,1.574,2.098,1.574c0.203,0,0.41-0.029,0.614-0.088c6.957-2.034,14.686-3.577,22.974-4.589
		c1.199-0.146,2.052-1.237,1.906-2.436C122.178,89.359,121.086,88.503,119.888,88.652z"/>
	<path fill="#FF6600" d="M134.048,87.475c-1.573,0.072-3.16,0.164-4.719,0.273c-1.205,0.084-2.113,1.129-2.029,2.334
		c0.081,1.153,1.041,2.034,2.179,2.034c0.051,0,0.103-0.002,0.155-0.006c1.524-0.106,3.076-0.197,4.614-0.267
		c1.207-0.055,2.14-1.078,2.084-2.285C136.278,88.353,135.251,87.428,134.048,87.475z"/>
	<path fill="#FF6600" d="M96.83,79.009c0.203,0,0.41-0.029,0.614-0.088c1.47-0.43,3.01-0.846,4.578-1.238
		c1.172-0.293,1.884-1.48,1.591-2.652c-0.293-1.172-1.481-1.884-2.652-1.591c-1.623,0.406-3.219,0.837-4.744,1.283
		c-1.159,0.339-1.824,1.554-1.486,2.713C95.01,78.39,95.883,79.009,96.83,79.009z"/>
	<path fill="#FF6600" d="M134.048,68.814c-8.188,0.376-16.133,1.25-23.614,2.599c-1.189,0.214-1.978,1.352-1.764,2.54
		c0.191,1.058,1.112,1.799,2.15,1.799c0.129,0,0.26-0.011,0.391-0.035c7.291-1.315,15.042-2.168,23.038-2.534
		c1.207-0.055,2.14-1.078,2.084-2.285C136.278,69.692,135.256,68.765,134.048,68.814z"/>
</g>
</svg>
