<?xml version="1.0" encoding="utf-8"?>
<!-- Generator: Adobe Illustrator 18.1.0, SVG Export Plug-In . SVG Version: 6.00 Build 0)  -->
<svg version="1.1" id="Capa_1" xmlns="http://www.w3.org/2000/svg" xmlns:xlink="http://www.w3.org/1999/xlink" x="0px" y="0px"
	 viewBox="0 0 175 135" enable-background="new 0 0 175 135" xml:space="preserve">
<g>
	<path fill="#FF6600" d="M153.142,98.076l-3.304-0.634c-1.549-0.297-2.769-1.311-3.345-2.782c-0.579-1.469-0.373-3.041,0.561-4.313
		l2.075-2.828c0.668-0.911,0.572-2.174-0.229-2.972l-4.482-4.48c-0.776-0.776-1.995-0.888-2.901-0.277l-2.785,1.885
		c-1.307,0.888-2.885,1.032-4.336,0.4c-1.446-0.629-2.414-1.888-2.654-3.451l-0.533-3.467c-0.169-1.114-1.13-1.938-2.258-1.938
		h-6.338c-1.096,0-2.041,0.78-2.247,1.858l-0.819,4.267c-0.291,1.515-1.277,2.723-2.702,3.313c-1.43,0.595-2.977,0.432-4.256-0.432
		l-3.597-2.435c-0.906-0.611-2.126-0.499-2.901,0.277l-4.482,4.48c-0.801,0.799-0.897,2.059-0.229,2.972l2.075,2.828
		c0.934,1.272,1.139,2.844,0.561,4.313c-0.577,1.471-1.796,2.485-3.345,2.782l-3.304,0.634c-1.075,0.206-1.856,1.149-1.856,2.247
		v6.338c0,1.128,0.824,2.089,1.94,2.261l3.467,0.533c1.563,0.24,2.819,1.208,3.451,2.654c0.632,1.448,0.485,3.027-0.4,4.336
		l-1.885,2.785c-0.616,0.906-0.499,2.126,0.277,2.901l4.48,4.482c0.796,0.799,2.057,0.895,2.972,0.229l2.828-2.075
		c1.272-0.931,2.849-1.142,4.313-0.561c1.471,0.577,2.485,1.796,2.782,3.345l0.634,3.304c0.206,1.073,1.149,1.853,2.247,1.853h6.338
		c1.128,0,2.089-0.824,2.261-1.94l0.375-2.437c0.24-1.574,1.263-2.874,2.73-3.483c1.474-0.609,3.112-0.41,4.396,0.531l1.988,1.46
		c0.913,0.67,2.176,0.572,2.972-0.229l4.48-4.482c0.776-0.776,0.892-1.993,0.277-2.901l-1.885-2.785
		c-0.886-1.307-1.032-2.888-0.4-4.336c0.629-1.446,1.888-2.414,3.451-2.654l3.467-0.533c1.114-0.172,1.938-1.133,1.938-2.261v-6.338
		C155,99.227,154.22,98.285,153.142,98.076z M150.424,104.701l-1.526,0.236c-3.098,0.476-5.695,2.476-6.947,5.347
		c-1.254,2.874-0.952,6.137,0.805,8.729l0.826,1.22l-1.757,1.757l-0.405-0.297c-2.586-1.892-5.892-2.29-8.853-1.069
		c-2.961,1.226-5.016,3.849-5.503,7.013l-0.076,0.499h-2.485l-0.277-1.448c-0.593-3.08-2.689-5.599-5.604-6.743
		c-2.92-1.144-6.169-0.718-8.695,1.13l-1.245,0.913l-1.757-1.757l0.826-1.22c1.757-2.595,2.057-5.858,0.805-8.729
		c-1.252-2.872-3.851-4.871-6.947-5.347l-1.526-0.233v-2.485l1.448-0.277c3.08-0.593,5.599-2.689,6.743-5.604
		c1.144-2.917,0.721-6.167-1.13-8.695l-0.913-1.245l1.757-1.757l2.034,1.377c2.535,1.721,5.746,2.043,8.574,0.872
		c2.83-1.174,4.867-3.67,5.446-6.679l0.46-2.412h2.485l0.236,1.526c0.476,3.098,2.476,5.695,5.347,6.947
		c2.872,1.254,6.137,0.952,8.729-0.805l1.22-0.826l1.757,1.757l-0.913,1.245c-1.853,2.526-2.274,5.775-1.13,8.695
		c1.144,2.915,3.666,5.011,6.743,5.604l1.446,0.277V104.701z"/>
	<path fill="#FF6600" d="M125.254,91.525c-6.308,0-11.441,5.132-11.441,11.441c0,6.308,5.132,11.441,11.441,11.441
		s11.441-5.132,11.441-11.441C136.695,96.658,131.563,91.525,125.254,91.525z M125.254,109.831c-3.785,0-6.864-3.08-6.864-6.864
		c0-3.785,3.08-6.864,6.864-6.864c3.785,0,6.864,3.08,6.864,6.864C132.119,106.751,129.039,109.831,125.254,109.831z"/>
	<path fill="#FF6600" d="M90.255,73.859c-0.526-0.668-2.467-3.231-4.35-6.977L85.8,66.672c-0.011-0.021-0.021-0.043-0.032-0.064
		c-0.249-0.501-0.494-1.032-0.741-1.581l-0.114-0.259c-0.128-0.291-0.256-0.59-0.384-0.904c-0.043-0.108-0.087-0.215-0.13-0.325
		c-0.121-0.302-0.243-0.609-0.373-0.961c-0.236-0.622-0.451-1.272-0.661-1.938l-0.165-0.54c-0.215-0.709-0.414-1.435-0.588-2.183
		c-0.002-0.016-0.009-0.03-0.011-0.046l-0.039-0.167l-0.167-0.739L81.61,56.46c-1.327-0.853-2.119-2.286-2.119-3.833v-9.153
		c0-1.284,0.545-2.483,1.533-3.375l0.755-0.68V25.169v-0.81l-0.062-0.048c-0.08-1.65,0.021-6.716,3.714-10.93
		c3.791-4.325,10.262-6.517,19.229-6.517c8.935,0,15.392,2.176,19.188,6.471c4.455,5.036,3.721,11.48,3.714,11.534l-0.021,14.55
		l0.755,0.682c0.988,0.89,1.533,2.089,1.533,3.373v9.153c0,1.998-1.307,3.746-3.254,4.345c-1.206,0.371-1.883,1.654-1.51,2.86
		c0.371,1.206,1.645,1.879,2.86,1.51c3.876-1.194,6.48-4.698,6.48-8.716v-9.153c0-2.203-0.821-4.341-2.288-6.006V25.298
		c0.13-1.258,0.632-8.75-4.787-14.93c-4.7-5.361-12.326-8.079-22.671-8.079S86.69,5.006,81.99,10.365
		c-3.283,3.746-4.386,7.965-4.723,10.994c-3.924-2.027-8.544-3.055-13.793-3.055c-23.771,0-25.153,20.261-25.169,20.593v10.477
		c-1.483,1.618-2.288,3.48-2.288,5.331v7.903c0,2.469,1.105,4.771,3,6.327c1.885,7.116,6.53,12.493,8.338,14.381v6.276
		c0,1.801-0.982,3.453-2.679,4.382l-15.218,9.548c-5.835,3.18-9.457,9.283-9.457,15.923v8.688h32.034h4.576H81.78
		c1.265,0,2.288-1.023,2.288-2.288c0-1.265-1.023-2.288-2.288-2.288H56.61v-5.121c0-5.883,3.208-11.29,8.37-14.104L85.397,93.2
		c3.414-1.865,5.535-5.441,5.535-9.329v-9.196l-0.531-0.636C90.394,74.035,90.337,73.962,90.255,73.859z M86.356,83.872
		c0,2.215-1.208,4.247-3.151,5.308l-6.054,3.302l-1.485,0.81l-12.875,7.022c-6.636,3.62-10.757,10.562-10.757,18.122v5.123H24.576
		v-4.112c0-4.965,2.709-9.528,7.189-11.974l15.218-9.548c3.05-1.663,4.945-4.853,4.945-8.331l-0.002-8.214l-0.721-0.68
		c-0.062-0.055-6.151-5.848-7.938-13.628l-0.208-0.906l-0.783-0.503c-1.055-0.682-1.684-1.824-1.684-3.052v-7.903
		c0-0.821,0.558-1.803,1.535-2.686l0.753-0.68l-0.005-12.308c0.043-0.659,1.231-16.152,20.598-16.152
		c5.478,0,10.088,1.265,13.729,3.762v10.825c-1.467,1.666-2.288,3.803-2.288,6.006v9.153c0,1.638,0.483,3.187,1.284,4.558
		c0.561,0.959,1.252,1.842,2.142,2.556c0.016,0.059,0.034,0.114,0.05,0.172c0.133,0.506,0.27,1.004,0.416,1.485l0.19,0.622
		c0.037,0.114,0.076,0.233,0.114,0.348c0.076,0.233,0.149,0.464,0.229,0.693c0.137,0.405,0.284,0.821,0.453,1.274
		c0.069,0.181,0.142,0.339,0.211,0.515c0.194,0.499,0.391,0.982,0.597,1.458c0.039,0.089,0.076,0.192,0.114,0.281l0.137,0.311
		c0.062,0.14,0.126,0.263,0.19,0.4c0.215,0.469,0.428,0.927,0.645,1.368c0.041,0.082,0.08,0.176,0.121,0.259l0.172,0.334
		c0.043,0.085,0.085,0.151,0.128,0.233c0.371,0.714,0.734,1.382,1.096,2.007c0.048,0.085,0.096,0.169,0.144,0.254
		c0.391,0.668,0.767,1.281,1.123,1.833c0.016,0.025,0.034,0.053,0.05,0.08c0.755,1.165,1.409,2.078,1.835,2.634v7.569H86.356z"/>
</g>
</svg>
