<?xml version="1.0" encoding="UTF-8" standalone="no"?>
<svg width="494px" height="499px" viewBox="0 0 494 499" version="1.1" xmlns="http://www.w3.org/2000/svg" xmlns:xlink="http://www.w3.org/1999/xlink" xmlns:sketch="http://www.bohemiancoding.com/sketch/ns">
    <!-- Generator: Sketch 3.3.3 (12072) - http://www.bohemiancoding.com/sketch -->
    <title>Group</title>
    <desc>Created with Sketch.</desc>
    <defs></defs>
    <g id="Page-1" stroke="none" stroke-width="1" fill="none" fill-rule="evenodd" sketch:type="MSPage">
        <g id="Group" sketch:type="MSLayerGroup" transform="translate(-7.000000, 0.000000)">
            <path d="M213.009009,25.4187867 C213.009009,33.2465753 217.063063,122.776908 228.774775,186.377691 C240.486486,249.978474 257.186731,298.913229 268.864865,330.2133 C296.792789,405.066529 367.513517,489.704494 378.324328,494.596862 C387.587502,498.788856 397.243245,500.46771 407.153155,489.704501 C419.630775,476.152487 410.788206,464.58459 397.693695,451.054795 C383.533573,436.423965 365.711712,417.786693 336.882883,369.841487 C308.054054,321.896282 279.225225,242.639922 268.864865,172.189824 C258.504505,101.739726 255.351351,29.6134723 255.351351,25.4187867 C255.351351,19.0587084 251.117118,1.83797013e-08 234.000001,1.85462454e-08 C216.882883,1.87128041e-08 213.009009,17.590998 213.009009,25.4187867 Z" id="Path-3" fill="#FF9933" sketch:type="MSShapeGroup"></path>
            <path d="M48.8105489,241.661446 C89.0590795,395.281798 167.729468,471.60274 191.725279,494.831972 C200.818443,501.067438 210.681343,500.720111 220.610711,489.925202 C232.694638,476.787921 220.489335,461.689018 207.369113,448.119374 C153.765504,391.367906 92.0537921,300.8591 68.5108472,126.6908 C65.4772155,165.829746 55.2752924,216.71037 48.8105489,241.661446 Z" id="Path-3-Copy" fill="#FF9933" sketch:type="MSShapeGroup" transform="translate(136.765635, 312.804782) scale(-1, 1) translate(-136.765635, -312.804782) "></path>
            <path d="M32.8560015,146.192754 C73.0687317,228.703467 109.53033,260.527409 125.678728,276.159924 C134.771891,282.39539 143.927816,283.936716 153.857183,273.141807 C167.470602,258.341708 157.085575,246.74733 141.725676,231.227974 C115.118914,205.334949 91.6085954,176.243273 63.6341062,113.544243 C56.5953404,121.669496 38.862622,139.133729 32.8560015,146.192754 Z" id="Path-3-Copy-2" fill="#FF9933" sketch:type="MSShapeGroup" transform="translate(95.748636, 197.296792) scale(-1, -1) rotate(-28.000000) translate(-95.748636, -197.296792) "></path>
            <path d="M312.046325,89.0144365 C336.018348,150.510266 372.234461,214.090115 427.360932,270.305416 C436.669613,277.343402 448.485118,280.194308 458.414486,269.399399 C471.007211,255.708968 461.979757,243.044088 446.619858,227.524731 C420.013096,201.631707 362.844434,114.471304 343.559744,50.6955188 C336.520978,58.8207721 318.052945,81.9554116 312.046325,89.0144365 Z" id="Path-3-Copy-3" fill="#99CC33" sketch:type="MSShapeGroup" transform="translate(387.995317, 163.627480) scale(1, -1) rotate(-28.000000) translate(-387.995317, -163.627480) "></path>
        </g>
    </g>
</svg>